<svg width="25" height="25" viewBox="0 0 25 25" fill="none" xmlns="http://www.w3.org/2000/svg">
    <path d="M2.58868 22.8063V7.80627C2.58868 7.54106 2.69404 7.2867 2.88158 7.09917C3.06911 6.91163 3.32347 6.80627 3.58868 6.80627H7.58868V2.80627H17.5887V6.80627H21.5887C21.8539 6.80627 22.1083 6.91163 22.2958 7.09917C22.4833 7.2867 22.5887 7.54106 22.5887 7.80627V22.8063H14.5887V17.8063H10.5887V22.8063H2.58868ZM9.58868 4.80627V10.8063H11.5887V8.80627H13.5887V10.8063H15.5887V4.80627H13.5887V6.80627H11.5887V4.80627H9.58868ZM4.58868 20.8063H8.58868V17.8063H4.58868V20.8063ZM4.58868 15.8063H8.58868V12.8063H4.58868V15.8063ZM16.5887 20.8063H20.5887V17.8063H16.5887V20.8063ZM16.5887 15.8063H20.5887V12.8063H16.5887V15.8063ZM10.5887 15.8063H14.5887V12.8063H10.5887V15.8063Z" fill="white"/>
</svg>
